<svg width="101" height="24" viewBox="0 0 101 24" fill="none" xmlns="http://www.w3.org/2000/svg">
<path fill-rule="evenodd" clip-rule="evenodd" d="M71.9445 10.4077L69.7281 17.2193H74.1841L71.9445 10.4077ZM28.6612 10.4077L26.4332 17.2193H30.9008L28.6612 10.4077ZM8.20315 0.0683902V8.30731L16.326 0.0683902H23.1028L16.1404 7.03086L20.8864 19.0875L27.1527 0.0683902H32.4905L38.6291 18.5537V0.0683902H47.3786L51.4169 13.4595L55.8728 0.0683902H64.2278V18.5537L70.3431 0.0683902H75.7391L82.2142 19.7954L88.8053 4.12983H82.1793V0.0219727H98.5063L90.5111 19.8766H98.5643L98.4483 23.938L76.4005 23.9961L75.5186 21.3271H68.3704L67.5001 23.9961H57.0564V10.9763L53.0646 23.9961H47.2626L43.1083 10.9763V23.9961H33.1172L32.2469 21.3271H25.0871L24.2168 23.9961H14.655L10.2107 12.5892L8.20315 14.5619V23.9961H0.973793V0.0683902H8.20315Z" fill="#F7002C"/>
</svg>
