<svg width="161" height="22" viewBox="0 0 161 22" fill="none" xmlns="http://www.w3.org/2000/svg">
<g clip-path="url(#clip0_635_22377)">
<path d="M0.00115967 1.02881V4.05864H4.88362L13.3684 21.337L25.552 21.3306L34.7766 4.0908L39.9421 4.0715V1.04168L25.5456 1.05454V4.03934L29.5146 4.05864L22.4643 16.461L14.745 4.0715L20.5088 4.03934V1.02881H0.00115967Z" fill="#F7002C"/>
<path d="M92.4394 1.02881V4.20659L97.2318 4.20015L106.9 21.3048H118.543L127.543 4.20659L132.567 4.17442V1.02881H118.312V4.11653L121.921 4.12939L115.436 16.3195L108.283 4.16799L113.417 4.14226V1.02881H92.4394Z" fill="#F7002C"/>
<path d="M53.2126 0.193359C45.0173 0.193359 38.6103 5.16587 38.6103 11.129C38.6103 17.0343 45.0173 21.8717 53.2126 21.8717C61.5366 21.8717 68.0015 17.0343 68.0015 11.129C68.0015 5.16587 61.5366 0.193359 53.2126 0.193359ZM53.3091 18.7647C49.7261 18.7647 47.4618 14.4805 47.4618 10.936C47.4618 7.0571 49.546 3.66704 53.0518 3.66704C56.384 3.66704 58.1401 7.52669 58.1401 11.1419C58.1401 14.8343 56.2296 18.7647 53.3091 18.7647Z" fill="#F7002C"/>
<path d="M69.154 0.964355V4.07781L74.2552 4.04564V18.1269L68.8388 18.1141V21.3047L97.7347 21.2983L97.7154 11.5913L94.454 11.5784C94.3897 15.7275 92.2025 18.0883 88.2786 18.0883L83.0037 18.0948V4.04564L88.0599 4.03921V0.964355H69.154Z" fill="#F7002C"/>
<path d="M145.96 -0.000488281C137.816 -0.000488281 130.83 5.01062 130.83 11.2054C130.83 17.2328 137.424 21.9931 145.896 21.9931C154.277 21.9931 160.807 16.9627 160.807 11.141C160.807 5.15858 154.181 -0.000488281 145.96 -0.000488281ZM146.089 18.8282C142.769 18.8925 140.177 14.6983 140.177 10.8837C140.177 7.10127 142.293 3.53109 145.58 3.53109C149.003 3.53109 151.209 7.5194 151.209 11.1732C151.209 14.8141 149.163 18.7638 146.089 18.8282Z" fill="#F7002C"/>
</g>
<defs>
<clipPath id="clip0_635_22377">
<rect width="160.819" height="22" fill="white"/>
</clipPath>
</defs>
</svg>
