<svg width="151" height="22" viewBox="0 0 151 22" fill="none" xmlns="http://www.w3.org/2000/svg">
<g clip-path="url(#clip0_635_22385)">
<path fill-rule="evenodd" clip-rule="evenodd" d="M125.966 13.2364H131.847L128.77 6.34631L125.966 13.2364ZM108.581 21.6811V0.791638H116.65V16.4157L122.992 0.841535H134.753L143.642 21.6803H135.454L134.018 18.4325H123.761L122.445 21.6803L108.581 21.6811ZM64.9212 13.2364H70.8017L67.7246 6.34631L64.9212 13.2364ZM31.997 10.9117C31.7405 10.4673 31.3982 10.1079 31.0053 9.79996C29.4664 8.56975 26.5951 7.98816 23.1414 7.98816C20.5266 7.98816 19.4835 8.15889 18.219 7.85095C16.6286 7.45803 16.4236 6.70571 16.4236 6.09061C16.4236 5.64623 16.8508 4.87676 17.3638 4.53452C17.9282 4.15875 18.4919 3.98801 19.3292 3.98801C20.5602 3.98801 21.8426 4.03947 22.4749 4.91107C22.9707 5.56125 23.1757 6.4843 23.2787 7.09941H32.0656C31.8605 4.04025 30.2366 2.55276 27.8261 1.40753C25.8771 0.433021 23.1765 0.0237284 19.9115 0.0237284C16.0478 0.0237284 13.3816 0.501627 11.1932 1.73184C9.02204 2.87708 7.72323 4.67173 7.62032 6.29642C7.50026 7.86966 7.63747 9.44055 8.62835 10.4151C9.44927 11.2874 10.5937 12.2456 12.287 12.7921C13.6201 13.1343 15.2784 13.2364 17.7747 13.2364C19.0906 13.2364 20.8174 13.3051 21.4154 13.4922C23.0908 13.8344 23.723 14.6553 23.723 15.3562C23.6037 15.8863 23.2615 16.5529 22.6971 16.9973C22.1841 17.4065 21.0903 17.681 20.1501 17.681C19.1584 17.681 18.2011 17.4416 17.4659 17.1844C16.5086 16.825 15.9278 15.6984 15.8249 14.8089H6.62866C6.62866 16.9286 7.62032 18.9276 10.1158 20.2451C12.5435 21.5611 15.9285 22.0218 19.5521 22.0218C23.3987 22.0218 26.5265 21.5954 28.8177 20.5522C31.2103 19.4756 32.5957 17.971 32.9208 15.937C33.4852 17.3208 34.5611 18.5697 35.7414 19.4928C38.2026 21.4254 41.2968 22.0218 45.5706 22.0218C49.0063 22.0218 51.8956 21.3217 54.1346 19.6799C54.1689 19.6463 54.2367 19.5777 54.3225 19.5263L53.4509 21.6811H61.3997L62.7157 18.4333H72.9729L74.4089 21.6811H87.7596V9.26982L97.401 21.664H106.786V0.825161H99.0756V12.0561L90.3752 0.825161H80.2209L80.2372 16.1935L73.7073 0.842314H61.947L56.9037 13.2364H49.4507C49.1771 14.3645 48.7327 15.6298 47.7582 16.2449C47.1259 16.6043 46.3222 16.9622 45.2455 16.9622C41.9462 16.9622 39.9115 15.0311 39.9115 11.2539C39.9115 9.50916 40.2701 8.03961 40.9031 6.9965C41.7576 5.78266 43.33 5.09895 44.9197 5.09895C46.0134 5.09895 47.0059 5.33829 47.6038 5.74914C48.6976 6.53498 49.1591 7.37227 49.3642 8.77478H57.8088C57.826 7.04796 57.4837 5.91987 56.818 4.86039C55.9627 3.37291 54.3388 2.17621 52.6299 1.47535C50.6981 0.517217 47.8089 0.0229492 44.7154 0.0229492C41.4161 0.0229492 38.1854 0.740185 35.8427 2.41477C33.1765 4.34741 32.0656 7.28807 31.997 10.9117Z" fill="#F7002C"/>
</g>
<defs>
<clipPath id="clip0_635_22385">
<rect width="150.273" height="22" fill="white"/>
</clipPath>
</defs>
</svg>
