<svg width="88" height="26" viewBox="0 0 88 26" fill="none" xmlns="http://www.w3.org/2000/svg">
<path d="M32.3669 0.0546875H24.2953C24.0034 0.0546875 23.759 0.224396 23.6504 0.495937L18.0567 12.1518C17.6765 12.9529 16.5225 12.9529 16.0812 12.145L8.76322 0.495937C8.61387 0.244762 8.45773 0.0546875 8.04363 0.0546875H0.359035C0.0331867 0.0546875 -0.122947 0.360166 0.114651 0.760688L10.8677 18.1868C11.2478 18.7978 11.7094 19.0082 12.2797 19.0082H13.9293L11.1596 25.3079C11.0034 25.6813 11.1324 26.0207 11.7094 26.0207H19.1021C19.6045 26.0207 19.7538 25.8714 20.005 25.3623L32.2718 0.910036C32.5841 0.305859 32.5502 0.0546875 32.3669 0.0546875Z" fill="#F7002C"/>
<path d="M48.5904 0.529927C48.3121 -0.0674618 48.156 0.0139937 47.1784 0.0139937H39.1137C38.3533 0.0139937 38.1497 -0.0403102 37.8306 0.591021L26.7654 25.0161C26.5413 25.5184 26.6907 25.9461 27.2745 25.9461L34.5789 25.9122C35.2917 25.9122 35.4682 25.6881 35.6515 25.1994L36.6359 22.837H49.9889L51.2176 25.3012C51.4348 25.7764 51.7131 25.9122 52.392 25.9122H59.2688C59.9815 25.9122 60.1377 25.532 59.7915 24.7445L48.5904 0.529927ZM38.8014 16.1096L42.1821 7.71896C42.5283 6.95186 43.6009 6.99259 43.9199 7.79363L47.4635 16.1096H38.8014Z" fill="#F7002C"/>
<path d="M84.639 12.6809C86.2683 11.0177 85.9831 8.22768 85.9831 7.29765C85.9831 3.46893 83.2881 0 78.4615 0H62.3184C61.8364 0 61.6667 0.278325 61.6667 0.780675V6.00783C61.6667 6.51697 61.8568 6.70026 62.4338 6.70026H76.0108C77.4364 6.70026 77.8166 7.48773 77.8166 8.37024C77.8166 9.24595 77.1649 10.0131 76.0651 10.0131H64.1241C63.5471 10.0131 63.357 10.2846 63.357 10.7937V15.0162C63.357 15.5185 63.5471 15.7629 64.1241 15.7629H76.9544C78.156 15.7629 78.8213 16.4621 78.8213 17.6162C78.8213 18.5666 77.9455 19.259 77.0495 19.259H62.5153C61.9382 19.259 61.4834 19.4491 61.4834 20.1347V25.1107C61.4834 25.6198 61.8839 25.871 62.3184 25.871H77.6265C85.2636 25.871 87.2458 21.9405 87.2458 18.3765C87.2458 15.8308 86.2004 13.9504 84.639 12.6809Z" fill="#F7002C"/>
</svg>
