<svg width="115" height="24" viewBox="0 0 115 24" fill="none" xmlns="http://www.w3.org/2000/svg">
<g clip-path="url(#clip0_635_22390)">
<path d="M85.5189 0.0250228C87.1673 -0.0209593 88.9067 0.00582567 90.5602 0.00616049L99.2923 0.00778174L104.514 0.00353789C105.408 0.00314726 106.346 -0.0259813 107.235 0.0337285C108.838 0.141318 108.572 2.06576 108.57 3.18624L108.558 6.71381L96.3431 6.70918L92.948 6.70254C91.4396 6.69947 90.0786 6.49952 88.9006 7.60265C87.458 8.94288 88.0138 10.5605 87.89 12.2693C87.7443 14.2838 88.0211 16.5478 90.4525 17.0361C91.4792 17.2425 93.2962 17.1108 94.4179 17.1097L102.54 17.112C104.548 17.1198 106.557 17.1159 108.566 17.0997C108.561 18.3246 108.563 19.5489 108.571 20.7738C108.576 22.184 108.878 23.9518 106.927 23.9847C105.575 24.0071 104.225 23.9981 102.873 23.9965L95.1974 23.9925L88.6852 23.9942C85.4971 23.9953 83.1227 24.2453 80.525 21.9513C78.8732 20.5076 77.8727 18.4591 77.7499 16.2682C77.6718 14.944 77.7276 13.1215 77.7259 11.7576C77.7209 8.35499 77.3475 5.49483 79.8169 2.7508C81.3487 1.04824 83.2471 0.16682 85.5189 0.0250228Z" fill="#F7002C"/>
<path d="M52.6308 0.0233604C54.175 -0.0412044 55.7506 0.0412726 57.296 0.00522351C57.8926 -0.00867157 58.6805 0.0490301 59.2519 0.00461044C63.5427 -0.328983 64.3563 1.01555 66.0544 4.76571L67.7402 8.47643L72.2776 18.4391C73.1057 20.2566 73.9511 22.1913 74.8178 23.9809C72.4238 24.039 70.0058 23.9664 67.6102 24.001C67.1755 24.0077 66.6978 24.0105 66.2681 23.9664C65.9394 23.9318 65.6163 23.8554 65.3066 23.7393C62.9104 22.8442 62.5243 21.2103 61.5628 19.0931L59.3356 14.1919C58.988 13.4207 58.6325 12.6534 58.2703 11.8894C57.5332 11.8509 56.748 11.8666 56.0109 11.8855C55.0476 13.9112 54.1673 16.0189 53.203 18.0479C52.4639 19.3632 51.9856 21.3359 50.9703 22.4458C49.2973 24.2745 47.2539 23.9994 45.0792 23.9966L39.4666 23.9899C40.3209 22.2951 41.1992 20.222 41.9962 18.4726L46.7908 7.94312L48.2336 4.77113C49.1486 2.75963 50.0871 0.31047 52.6308 0.0233604Z" fill="#F7002C"/>
<path d="M13.3019 0.0214089C14.8003 -0.0299303 16.5016 0.00572754 18.0137 0.00544852L26.5609 0.00472305L32.1414 0.00505683C33.114 0.00516844 34.0837 -0.015534 35.0556 0.0301691C36.4823 0.097245 36.5618 1.042 36.5655 2.19992L36.5585 11.2677C36.5603 12.8726 36.6726 16.2404 36.3493 17.6243C35.9994 19.1304 35.233 20.5077 34.1375 21.5992C33.0857 22.6528 31.7665 23.3994 30.3218 23.7594C28.887 24.107 25.6274 23.9926 23.9938 23.9926L14.5374 23.9932L9.56611 23.9993C8.70545 24.0004 7.66789 24.054 6.82911 23.9262C5.44363 23.7153 5.71773 21.746 5.71934 20.7605L5.73223 17.1025L17.772 17.1098L21.3227 17.1176C22.1198 17.1193 22.9738 17.1511 23.7638 17.0423C25.2254 16.8146 26.3621 15.4591 26.3942 13.987C26.4299 12.3419 26.3649 10.6812 26.4099 9.03341C26.4192 8.69205 26.4157 8.40556 26.3781 8.0574C26.3692 7.52721 25.8212 6.79897 25.2482 6.7574C23.8906 6.65896 22.3244 6.70902 20.9669 6.70885L11.9494 6.70628L11.9427 3.34563C11.9385 2.02749 11.6102 0.293619 13.3019 0.0214089Z" fill="#F7002C"/>
</g>
<defs>
<clipPath id="clip0_635_22390">
<rect width="114.286" height="24" fill="white"/>
</clipPath>
</defs>
</svg>
