<svg width="101" height="54" viewBox="0 0 101 54" fill="none" xmlns="http://www.w3.org/2000/svg">
<g clip-path="url(#clip0_635_22346)">
<path fill-rule="evenodd" clip-rule="evenodd" d="M91.9182 25.0408H62.1505L51.9889 -0.00439453L50.1195 4.67585L41.9959 25.0408H10.1485L1.47638 45.2653L50.1195 51.9553L51.5391 52.1521L99.1139 45.2653L91.9182 25.0408ZM51.3987 46.3336L50.1195 46.2913L4.30133 44.6751L11.6239 27.8939H41.8273L50.1195 6.69972L51.9889 1.94901L62.1218 27.8939H90.2738L95.9513 44.6751L51.3987 46.3336Z" fill="#F7002C"/>
<path fill-rule="evenodd" clip-rule="evenodd" d="M92.6507 37.9297L89.6843 36.5665L91.3152 34.3318L89.8257 29.0895H66.185L68.5882 34.1638H81.9124L80.0848 36.5665L82.3764 38.6885H64.1053L51.9908 4.49365L50.1214 9.35656L40.0585 35.6944H35.5327L34.2118 29.089H26.1304L22.2654 34.4863L19.2718 29.089H12.2723L5.91998 43.6354H12.694L15.6594 38.6885L17.8941 43.6354H26.4394L29.124 38.379L31.8085 43.6354H44.5419L47.0861 40.4874L50.1219 42.4408L51.9913 43.6354L56.4466 40.4874L58.8776 43.6354H94.6041L92.6507 37.9297ZM51.9908 36.8755L50.1214 35.5681L48.1257 34.1632L50.1214 29.4407L51.9908 25.0412L55.7426 34.1632L51.9908 36.8755Z" fill="#F7002C"/>
</g>
<defs>
<clipPath id="clip0_635_22346">
<rect width="100.596" height="54" fill="white"/>
</clipPath>
</defs>
</svg>
