<svg width="167" height="20" viewBox="0 0 167 20" fill="none" xmlns="http://www.w3.org/2000/svg">
<path d="M3.66895 0L17.1223 16.8333L14.2489 20H29.6756L44.7756 0H30.8956L23.5756 8.53334L17.1889 0H3.66895Z" fill="#F7002C"/>
<path d="M46.7471 0V5.81333H68.2537C69.5204 5.81333 69.8071 8.05334 68.1071 8.05334H46.7471V19.9267H59.5471V13.7733H73.9871C79.3271 13.7733 81.0271 9.20667 81.0271 6.74667C81.0271 2.40667 77.4537 0 74.1937 0H46.7471Z" fill="#F7002C"/>
<path d="M89.5348 0L77.6415 19.9267H103.168L103.595 18.7933L99.9481 13.6333H93.8481L97.9748 6.67334L107.061 19.9267H119.308L106.995 0H89.5348Z" fill="#F7002C"/>
<path d="M133.135 0L120.682 19.9267H133.555L141.508 6.67334L150.248 19.9267H162.995L150.395 0H133.135Z" fill="#F7002C"/>
</svg>
