<svg width="110" height="24" viewBox="0 0 110 24" fill="none" xmlns="http://www.w3.org/2000/svg">
<path fill-rule="evenodd" clip-rule="evenodd" d="M96.4337 5.71953C98.2148 5.81834 99.5 7.10412 99.6982 8.78578C99.7964 9.67569 99.7964 11.0609 99.7964 11.9502C99.7964 13.039 99.7964 13.9289 99.6982 14.8182C99.4018 16.8957 97.9184 18.0827 96.4337 18.0827H93.8628C92.4776 18.0827 90.8947 16.8957 90.5983 14.8182C90.4988 13.9289 90.4988 13.0384 90.4988 12.0496C90.4988 11.0603 90.4988 9.67569 90.5983 8.78513C90.7965 7.10348 92.1798 5.81769 93.9609 5.71888C94.3568 5.62008 94.6532 5.62008 95.1479 5.62008L96.4337 5.71953ZM95.445 -0.0170898C97.3243 -0.0170898 99.1054 0.0817169 100.589 0.279331C104.743 0.774012 108.105 4.03788 108.797 8.09348C108.897 8.78578 109.094 10.368 109.094 11.9502C109.094 13.6318 108.897 15.2147 108.797 15.8075C108.105 19.9626 104.743 23.127 100.589 23.7211C99.1054 23.8193 97.3243 24.0176 95.445 24.0176H94.8521C92.8734 24.0176 91.1918 23.8193 89.6102 23.7211C85.4551 23.127 82.1926 19.9626 81.4996 15.8075C81.4002 15.2147 81.2019 13.6318 81.2019 11.9502C81.2019 10.368 81.4002 8.78578 81.4996 8.09348C82.1919 4.03788 85.4551 0.774012 89.6102 0.279331C91.1918 0.0817169 92.8734 -0.0170898 94.7527 -0.0170898H95.445ZM59.7395 11.9502C59.7395 10.6644 59.8389 9.37927 60.1354 8.09348C60.8277 4.03788 64.0922 0.774012 68.2459 0.279331C69.7293 0.0817169 71.5104 -0.0170898 73.3897 -0.0170898C75.466 -0.0170898 77.3452 0.0817169 78.9281 0.279331C79.5209 0.378138 79.9168 0.872822 79.9168 1.46631V5.02659C79.9168 5.71889 79.4221 6.21356 78.828 6.21356C78.828 6.21356 76.9487 6.11476 75.96 6.11476C74.7743 6.11476 73.7843 6.11476 72.6968 6.21356C70.9157 6.31237 69.6305 7.59816 69.4323 9.27981C69.3328 10.1697 69.234 11.0603 69.234 11.9495V12.049C69.234 12.9395 69.3322 13.8288 69.4323 14.7194C69.6305 16.401 70.8175 17.6862 72.6968 17.8838C73.6855 17.9832 74.8725 18.082 75.96 18.082C76.9487 18.082 78.828 17.9839 78.828 17.9839C79.4221 17.9839 79.9168 18.4785 79.9168 19.1708V22.7318C79.9168 23.3246 79.5209 23.8193 78.9281 23.9187C77.3452 23.9187 75.466 24.0169 73.3897 24.0169C71.5104 24.0169 69.7293 23.8186 68.2459 23.7205C64.0922 23.1264 60.8283 19.9619 60.1354 15.8069C59.8389 14.6212 59.7395 13.3348 59.7395 12.0496V11.9502ZM57.0691 17.7863C57.7614 17.7863 58.2561 18.3791 58.2561 18.9732V22.5342C58.2561 23.2265 57.7614 23.7211 57.0691 23.7211H42.9255C42.3148 23.7218 41.71 23.602 41.1457 23.3686C40.5813 23.1352 40.0686 22.7928 39.6368 22.3609C39.205 21.9291 38.8627 21.4163 38.6293 20.8519C38.396 20.2876 38.2763 19.6827 38.2771 19.072V5.02724C38.2764 4.4166 38.3962 3.81183 38.6295 3.24755C38.8629 2.68327 39.2053 2.17055 39.637 1.73877C40.0688 1.30699 40.5815 0.96461 41.1458 0.731244C41.7101 0.497879 42.3149 0.378108 42.9255 0.378788H57.0691C57.7614 0.378788 58.2561 0.873467 58.2561 1.46696V4.92843C58.2561 5.62072 57.7614 6.1154 57.0691 6.1154H48.3657C47.6734 6.1154 47.1787 6.51128 47.1787 7.20357V9.37926L54.5964 9.28046C55.1892 9.28046 55.7833 9.8733 55.7833 10.4668V13.4349C55.7833 14.1259 55.1892 14.6218 54.5964 14.6218H47.1787V16.5993C47.1787 17.2916 47.6734 17.7863 48.3657 17.7863H57.0691ZM21.0679 23.7205C18.991 23.7205 17.2099 22.3353 16.6164 20.456L11.7703 1.76273V1.46631C11.7703 0.872822 12.265 0.378143 12.9573 0.378143H20.1773C20.7708 0.378143 21.2655 0.77337 21.3643 1.26805L25.1228 16.8957C25.1228 17.094 25.3204 17.2916 25.6175 17.2916C25.8151 17.2916 26.0127 17.0933 26.0127 16.8957L29.8701 1.26805C29.9689 0.77337 30.4636 0.378143 30.9582 0.378143H35.0132C35.7055 0.378143 36.2002 0.872822 36.2002 1.46631V1.76273L31.5517 20.0601C31.057 22.1376 29.3754 23.7205 27.0021 23.7205H21.0679ZM1.18698 0.378143H8.20938C8.90167 0.378143 9.39635 0.872822 9.39635 1.46631V22.5335C9.39635 23.2258 8.90167 23.7205 8.20938 23.7205H1.18698C0.593488 23.7205 0 23.2258 0 22.5335V1.46631C0.000645797 0.872822 0.594134 0.378143 1.18698 0.378143Z" fill="#F7002C"/>
</svg>
