<svg width="32" height="32" viewBox="0 0 32 32" fill="none" xmlns="http://www.w3.org/2000/svg">
<rect width="32" height="32" fill="#2AABEE"/>
<path fill-rule="evenodd" clip-rule="evenodd" d="M6.94364 14.9061C12.5808 12.4501 16.3397 10.8309 18.2206 10.0486C23.5907 7.81502 24.7065 7.42701 25.4338 7.4142C25.5938 7.41138 25.9514 7.45103 26.1831 7.63902C26.3788 7.79776 26.4326 8.01219 26.4583 8.16269C26.4841 8.3132 26.5162 8.65604 26.4907 8.92393C26.1997 11.9816 24.9405 19.4017 24.2999 22.8264C24.0288 24.2755 23.4951 24.7613 22.9784 24.8089C21.8554 24.9122 21.0027 24.0668 19.9151 23.3538C18.2132 22.2382 17.2517 21.5437 15.5997 20.455C13.6906 19.1969 14.9282 18.5054 16.0162 17.3754C16.301 17.0796 21.2486 12.5793 21.3444 12.171C21.3564 12.12 21.3675 11.9296 21.2544 11.8291C21.1414 11.7286 20.9745 11.763 20.8541 11.7903C20.6834 11.8291 17.9646 13.6261 12.6976 17.1815C11.9259 17.7114 11.2269 17.9696 10.6006 17.9561C9.91015 17.9412 8.58204 17.5657 7.59473 17.2448C6.38374 16.8511 5.42128 16.643 5.50509 15.9745C5.54874 15.6263 6.02826 15.2702 6.94364 14.9061Z" fill="white"/>
</svg>
