<svg width="32" height="32" viewBox="0 0 32 32" fill="none" xmlns="http://www.w3.org/2000/svg">
<rect width="32" height="32" fill="white"/>
<g clip-path="url(#clip0_4011_22438)">
<path d="M27.5221 10.1859C27.3864 9.67531 27.119 9.20932 26.7466 8.83455C26.3743 8.45979 25.91 8.1894 25.4003 8.05044C23.5239 7.5459 16.0239 7.5459 16.0239 7.5459C16.0239 7.5459 8.52393 7.5459 6.64756 8.05044C6.13786 8.1894 5.67358 8.45979 5.30121 8.83455C4.92884 9.20932 4.66143 9.67531 4.52574 10.1859C4.02393 12.0704 4.02393 16.0004 4.02393 16.0004C4.02393 16.0004 4.02393 19.9304 4.52574 21.815C4.66143 22.3256 4.92884 22.7916 5.30121 23.1663C5.67358 23.5411 6.13786 23.8115 6.64756 23.9504C8.52393 24.455 16.0239 24.455 16.0239 24.455C16.0239 24.455 23.5239 24.455 25.4003 23.9504C25.91 23.8115 26.3743 23.5411 26.7466 23.1663C27.119 22.7916 27.3864 22.3256 27.5221 21.815C28.0239 19.9304 28.0239 16.0004 28.0239 16.0004C28.0239 16.0004 28.0239 12.0704 27.5221 10.1859Z" fill="#FF0302"/>
<path d="M13.5693 19.5689V12.4316L19.8421 16.0003L13.5693 19.5689Z" fill="white"/>
</g>
<defs>
<clipPath id="clip0_4011_22438">
<rect width="24" height="24" fill="white" transform="translate(4 4)"/>
</clipPath>
</defs>
</svg>
