<svg width="32" height="32" viewBox="0 0 32 32" fill="none" xmlns="http://www.w3.org/2000/svg">
<g clip-path="url(#clip0_4011_22436)">
<rect width="32" height="32" fill="#0077FF"/>
<path d="M0 15.36C0 8.11923 0 4.49885 2.24942 2.24942C4.49885 0 8.11923 0 15.36 0H16.64C23.8808 0 27.5012 0 29.7506 2.24942C32 4.49885 32 8.11923 32 15.36V16.64C32 23.8808 32 27.5012 29.7506 29.7506C27.5012 32 23.8808 32 16.64 32H15.36C8.11923 32 4.49885 32 2.24942 29.7506C0 27.5012 0 23.8808 0 16.64V15.36Z" fill="#0077FF"/>
<path d="M17.0267 23.0534C9.7334 23.0534 5.57343 18.0534 5.40009 9.7334H9.05343C9.17343 15.8401 11.8667 18.4267 14 18.9601V9.7334H17.4401V15C19.5468 14.7734 21.7599 12.3734 22.5066 9.7334H25.9466C25.3733 12.9867 22.9733 15.3867 21.2666 16.3734C22.9733 17.1734 25.7068 19.2667 26.7468 23.0534H22.96C22.1466 20.5201 20.1201 18.5601 17.4401 18.2934V23.0534H17.0267Z" fill="white"/>
</g>
<defs>
<clipPath id="clip0_4011_22436">
<rect width="32" height="32" fill="white"/>
</clipPath>
</defs>
</svg>
