<svg width="16" height="16" viewBox="0 0 16 16" fill="none" xmlns="http://www.w3.org/2000/svg">
<path d="M13.2886 12.9341L13.7558 13.4097L13.7617 13.4038L13.2886 12.9341ZM12.3269 13.9152L12.8133 14.371L12.8346 14.3472L12.3269 13.9152ZM11.0385 14.3966L11.0827 13.7314L11.0809 13.7312L11.0385 14.3966ZM8.65701 13.6836L8.367 14.2839L8.36985 14.2852L8.65701 13.6836ZM4.15059 10.1614L3.63794 10.5876L3.63998 10.59L4.15059 10.1614ZM1.95233 6.50815L2.5774 6.27634L2.57671 6.27448L1.95233 6.50815ZM1.61038 4.6008L0.946144 4.54391L0.945954 4.54622L1.61038 4.6008ZM2.03172 3.69587L2.50264 4.16776L2.50264 4.16776L2.03172 3.69587ZM3.07283 2.65688L2.61704 2.17037L2.60191 2.18499L3.07283 2.65688ZM3.54001 2.20881L4.01315 1.73915L3.54897 1.27153L3.07593 1.73018L3.54001 2.20881ZM3.99183 2.66297L3.5209 3.13486L3.53716 3.15054L3.99183 2.66297ZM4.54139 3.20837L4.06292 3.6726L4.06304 3.67272L4.54139 3.20837ZM4.83144 3.50392L4.35325 3.96856L4.36051 3.9758L4.83144 3.50392ZM5.66494 4.33572L6.1417 3.86966L6.13586 3.86383L5.66494 4.33572ZM5.66494 5.28026L5.1957 4.8067L5.19402 4.80837L5.66494 5.28026ZM5.08175 5.84092L4.63723 5.34409L4.61083 5.36904L5.08175 5.84092ZM5.06649 5.85616L5.53741 6.32804L5.66253 6.15479L5.06649 5.85616ZM4.90772 6.5478L4.27204 6.74895L4.2754 6.75901L4.90772 6.5478ZM4.91688 6.57522L4.28456 6.78643L4.30084 6.83004L4.91688 6.57522ZM5.90305 8.18094L5.37971 8.59394L5.43212 8.65282L5.90305 8.18094ZM5.9061 8.18398L6.42327 7.7633L6.37702 7.7121L5.9061 8.18398ZM8.61728 10.6459L8.97379 10.0825L8.97308 10.0821L8.61728 10.6459ZM8.99281 10.85L9.29047 10.2535L8.99281 10.85ZM9.29507 11.0115L8.94402 11.5782L8.99742 11.608L9.29507 11.0115ZM9.33171 11.0328L9.03406 11.6294L9.33171 11.0328ZM10.098 10.8988L10.569 11.3707V11.3707L10.098 10.8988ZM10.6965 10.3015L10.2256 9.82965V9.82965L10.6965 10.3015ZM11.1517 9.83992L11.6239 9.36927L11.1481 8.89194L10.676 9.37292L11.1517 9.83992ZM11.5972 10.2954L11.105 10.7451L11.1263 10.7673L11.5972 10.2954ZM11.6033 10.3015L12.0742 9.82965V9.82965L11.6033 10.3015ZM13.2856 11.9804L12.8145 12.4524L12.8247 12.4621L13.2856 11.9804ZM8.69089 3.5594L8.03339 3.44921L7.813 4.7642L8.4705 4.87439L8.58069 4.2169L8.69089 3.5594ZM11.1234 7.52312L11.2364 8.18013L12.5505 7.95397L12.4374 7.29697L11.7804 7.41004L11.1234 7.52312ZM8.81404 0.942283L8.15671 0.831076L7.9343 2.14573L8.59162 2.25694L8.70283 1.59961L8.81404 0.942283ZM12.4551 3.54048L12.9261 3.06859L12.9254 3.0679L12.4551 3.54048ZM13.7427 7.39676L13.8544 8.05401L15.1689 7.83071L15.0572 7.17346L14.4 7.28511L13.7427 7.39676ZM13.7727 12.4464L14.2458 12.9162L14.7243 12.4342L14.2336 11.9647L13.7727 12.4464ZM6.13396 4.81551L6.6032 5.28907L7.07356 4.82299L6.61069 4.34949L6.13396 4.81551ZM13.2886 12.9341C12.8215 12.4584 12.8215 12.4584 12.8214 12.4584C12.8214 12.4585 12.8214 12.4585 12.8214 12.4585C12.8214 12.4585 12.8213 12.4586 12.8213 12.4586C12.8212 12.4587 12.821 12.4589 12.8208 12.4591C12.8204 12.4595 12.8198 12.46 12.8191 12.4608C12.8175 12.4623 12.8153 12.4645 12.8124 12.4674C12.8065 12.4731 12.798 12.4815 12.7871 12.4923C12.7653 12.5137 12.7341 12.5446 12.696 12.5822C12.6199 12.6575 12.5163 12.7604 12.4066 12.8705C12.1973 13.0804 11.9348 13.3472 11.8192 13.4831L12.3269 13.9152L12.8346 14.3472C12.9082 14.2607 13.1266 14.0369 13.3509 13.8118C13.4579 13.7045 13.5593 13.6038 13.6339 13.5299C13.6712 13.493 13.7018 13.4628 13.723 13.4419C13.7336 13.4315 13.7418 13.4234 13.7474 13.4179C13.7502 13.4151 13.7523 13.4131 13.7537 13.4117C13.7544 13.411 13.7549 13.4105 13.7553 13.4101C13.7555 13.41 13.7556 13.4098 13.7557 13.4098C13.7557 13.4097 13.7557 13.4097 13.7557 13.4097C13.7558 13.4097 13.7558 13.4097 13.7558 13.4097C13.7558 13.4097 13.7558 13.4097 13.2886 12.9341ZM12.3269 13.9152L11.8404 13.4593C11.6636 13.648 11.4791 13.7329 11.1789 13.7329V14.3996V15.0663C11.8313 15.0663 12.3734 14.8405 12.8133 14.371L12.3269 13.9152ZM11.1789 14.3996V13.7329C11.1287 13.7329 11.1025 13.7327 11.0827 13.7314L11.0385 14.3966L10.9942 15.0618C11.066 15.0665 11.1375 15.0663 11.1789 15.0663V14.3996ZM11.0385 14.3966L11.0809 13.7312C10.3078 13.6819 9.56131 13.3765 8.94417 13.0819L8.65701 13.6836L8.36985 14.2852C9.01671 14.594 9.95558 14.9954 10.996 15.0619L11.0385 14.3966ZM8.65701 13.6836L8.94701 13.0833C7.30548 12.2903 5.86279 11.1642 4.6612 9.73275L4.15059 10.1614L3.63998 10.59C4.96027 12.1628 6.55239 13.4072 8.36701 14.2839L8.65701 13.6836ZM4.15059 10.1614L4.66323 9.73518C3.65987 8.52832 3.00708 7.43495 2.5774 6.27634L1.95233 6.50815L1.32727 6.73996C1.81964 8.06763 2.55908 9.28989 3.63795 10.5876L4.15059 10.1614ZM1.95233 6.50815L2.57671 6.27448C2.31385 5.57213 2.23967 5.08318 2.27481 4.65537L1.61038 4.6008L0.945954 4.54622C0.889498 5.23358 1.02294 5.92683 1.32796 6.74183L1.95233 6.50815ZM1.61038 4.6008L2.27462 4.65769C2.29175 4.45771 2.36085 4.30925 2.50264 4.16776L2.03172 3.69587L1.56079 3.22398C1.19576 3.58827 0.990083 4.03092 0.946148 4.54391L1.61038 4.6008ZM2.03172 3.69587L2.50264 4.16776L3.54376 3.12877L3.07283 2.65688L2.60191 2.18499L1.56079 3.22398L2.03172 3.69587ZM3.07283 2.65688L3.52863 3.14339C3.60727 3.06972 3.7272 2.95466 3.82505 2.86041C3.87449 2.81277 3.91919 2.76958 3.95153 2.73831C3.96771 2.72266 3.9808 2.70998 3.98988 2.70119C3.99441 2.6968 3.99794 2.69338 4.00035 2.69105C4.00155 2.68988 4.00247 2.68899 4.0031 2.68838C4.00341 2.68808 4.00365 2.68785 4.00382 2.68769C4.0039 2.68761 4.00396 2.68755 4.004 2.68751C4.00403 2.68748 4.00404 2.68747 4.00406 2.68746C4.00406 2.68745 4.00407 2.68744 4.00407 2.68744C4.00407 2.68744 4.00408 2.68743 3.54001 2.20881C3.07593 1.73018 3.07593 1.73018 3.07593 1.73018C3.07593 1.73019 3.07593 1.73019 3.07593 1.73019C3.07592 1.7302 3.07591 1.73021 3.07589 1.73023C3.07586 1.73026 3.0758 1.73031 3.07573 1.73038C3.07559 1.73052 3.07537 1.73073 3.07508 1.73101C3.07449 1.73158 3.07362 1.73243 3.07246 1.73356C3.07014 1.7358 3.0667 1.73913 3.06226 1.74343C3.05338 1.75203 3.0405 1.7645 3.02457 1.77992C2.99268 1.81075 2.94864 1.8533 2.9 1.90017C2.80165 1.9949 2.688 2.10389 2.61704 2.17037L3.07283 2.65688ZM3.54001 2.20881C3.06686 2.67847 3.06686 2.67847 3.06686 2.67847C3.06687 2.67847 3.06687 2.67848 3.06688 2.67848C3.06689 2.67849 3.0669 2.67851 3.06693 2.67853C3.06697 2.67858 3.06703 2.67864 3.06712 2.67872C3.06728 2.67889 3.06753 2.67914 3.06786 2.67948C3.06852 2.68014 3.0695 2.68113 3.07078 2.68241C3.07334 2.68499 3.0771 2.68878 3.08192 2.69363C3.09156 2.70334 3.10543 2.71732 3.12239 2.73439C3.15629 2.76853 3.20253 2.81508 3.25183 2.86469C3.34991 2.96339 3.46169 3.07577 3.51174 3.12572L3.98267 2.65383L4.45359 2.18195C4.40594 2.13439 4.29639 2.02427 4.19757 1.92483C4.14842 1.87537 4.10231 1.82894 4.06848 1.79488C4.05157 1.77785 4.03773 1.76391 4.02812 1.75423C4.02332 1.74939 4.01957 1.74562 4.01703 1.74306C4.01576 1.74178 4.01479 1.7408 4.01413 1.74014C4.01381 1.73981 4.01356 1.73957 4.0134 1.7394C4.01331 1.73932 4.01325 1.73925 4.01321 1.73921C4.01319 1.73919 4.01318 1.73918 4.01317 1.73917C4.01316 1.73916 4.01316 1.73916 4.01315 1.73916C4.01315 1.73915 4.01315 1.73915 3.54001 2.20881ZM3.98267 2.65383L3.51174 3.12572C3.51327 3.12724 3.51479 3.12876 3.51631 3.13028C3.51784 3.1318 3.51937 3.13333 3.5209 3.13486L3.99183 2.66297L4.46275 2.19109C4.46123 2.18957 4.4597 2.18805 4.45818 2.18653C4.45665 2.185 4.45512 2.18348 4.45359 2.18195L3.98267 2.65383ZM3.99183 2.66297L3.53716 3.15054C3.71052 3.31221 3.87794 3.48195 4.06292 3.6726L4.54139 3.20837L5.01986 2.74414C4.83235 2.55088 4.64561 2.36109 4.44649 2.17541L3.99183 2.66297ZM4.54139 3.20837L4.06304 3.67272C4.11254 3.72372 4.16251 3.77437 4.21067 3.82319C4.25945 3.87264 4.30652 3.92035 4.35331 3.9685L4.83144 3.50392L5.30956 3.03933C5.25866 2.98694 5.20802 2.93562 5.15986 2.88681C5.11109 2.83737 5.06489 2.79052 5.01974 2.74401L4.54139 3.20837ZM4.83144 3.50392L4.36051 3.9758L5.19402 4.8076L5.66494 4.33572L6.13586 3.86383L5.30236 3.03203L4.83144 3.50392ZM5.08175 5.84092L4.61083 5.36904C4.62872 5.35118 4.64363 5.33856 4.64934 5.33378C4.65156 5.33192 4.65409 5.32985 4.65177 5.33175C4.65082 5.33254 4.64572 5.33672 4.63965 5.34191C4.61817 5.36028 4.53295 5.43277 4.47045 5.55753L5.06649 5.85616L5.66253 6.15479C5.60308 6.27345 5.52244 6.34137 5.5063 6.35517C5.50371 6.35738 5.50163 6.35913 5.50036 6.36018C5.49971 6.36073 5.49919 6.36116 5.49886 6.36143C5.49854 6.36169 5.49832 6.36187 5.49831 6.36187C5.49742 6.36261 5.5014 6.35935 5.5051 6.35625C5.51377 6.349 5.53173 6.33371 5.55268 6.31281L5.08175 5.84092ZM5.06649 5.85616L4.59557 5.38427C4.36382 5.61554 4.23785 5.88203 4.20581 6.1583C4.17586 6.41648 4.23483 6.63107 4.27212 6.74893L4.90772 6.5478L5.54333 6.34667C5.53923 6.33371 5.53643 6.32391 5.53445 6.31603C5.53248 6.30822 5.53154 6.3032 5.5311 6.30039C5.53025 6.29494 5.53164 6.30004 5.53026 6.31193C5.52957 6.31784 5.52832 6.32435 5.5264 6.33095C5.52446 6.3376 5.52229 6.34281 5.52056 6.34629C5.51886 6.34972 5.51831 6.35003 5.5203 6.34731C5.52235 6.3445 5.52749 6.33794 5.53741 6.32804L5.06649 5.85616ZM4.90772 6.5478L4.2754 6.75901C4.27693 6.76358 4.27845 6.76816 4.27998 6.77273C4.28151 6.7773 4.28303 6.78186 4.28456 6.78643L4.91688 6.57522L5.54921 6.36402C5.54768 6.35944 5.54615 6.35487 5.54463 6.3503C5.5431 6.34573 5.54158 6.34116 5.54005 6.33659L4.90772 6.5478ZM4.91688 6.57522L4.30084 6.83004C4.54784 7.4272 4.89038 7.97388 5.37971 8.59394L5.90305 8.18094L6.42638 7.76794C5.98756 7.21189 5.71947 6.77138 5.53293 6.32041L4.91688 6.57522ZM5.90305 8.18094L5.43212 8.65282L5.43517 8.65587L5.9061 8.18398L6.37702 7.7121L6.37397 7.70905L5.90305 8.18094ZM5.9061 8.18398L5.38892 8.60467C6.27025 9.68814 7.21149 10.547 8.26147 11.2097L8.61728 10.6459L8.97308 10.0821C8.06296 9.50771 7.22728 8.75172 6.42327 7.7633L5.9061 8.18398ZM8.61728 10.6459L8.26077 11.2092C8.41894 11.3093 8.57699 11.3876 8.69516 11.4465L8.99281 10.85L9.29047 10.2535C9.16439 10.1906 9.06598 10.1409 8.97379 10.0825L8.61728 10.6459ZM8.99281 10.85L8.69516 11.4465C8.81223 11.505 8.8866 11.5427 8.94402 11.5782L9.29507 11.0115L9.64613 10.4448C9.52647 10.3706 9.39322 10.3048 9.29047 10.2535L8.99281 10.85ZM9.29507 11.0115L8.99742 11.608C8.98131 11.6 8.96952 11.5931 8.96439 11.5901C8.95981 11.5874 8.95639 11.5852 8.96059 11.5878C8.9625 11.589 8.97202 11.595 8.98271 11.6013C8.99395 11.608 9.01184 11.6183 9.03406 11.6294L9.33171 11.0328L9.62937 10.4363C9.64548 10.4443 9.65726 10.4512 9.66239 10.4542C9.66698 10.457 9.67039 10.4591 9.6662 10.4565C9.66429 10.4553 9.65477 10.4493 9.64407 10.443C9.63284 10.4363 9.61495 10.4261 9.59273 10.415L9.29507 11.0115ZM9.33171 11.0328L9.03406 11.6294C9.21777 11.721 9.41675 11.7757 9.63397 11.7757V11.109V10.4423C9.63582 10.4423 9.63823 10.4425 9.64089 10.4428C9.64355 10.4431 9.64552 10.4435 9.64653 10.4438C9.64882 10.4444 9.64363 10.4434 9.62937 10.4363L9.33171 11.0328ZM9.63397 11.109V11.7757C10.1769 11.7757 10.5053 11.4342 10.569 11.3707L10.098 10.8988L9.62713 10.4269C9.6207 10.4333 9.61796 10.436 9.61505 10.4388C9.61242 10.4412 9.6103 10.4431 9.60845 10.4447C9.60453 10.448 9.60232 10.4494 9.60199 10.4496C9.60181 10.4497 9.60503 10.4478 9.61152 10.4458C9.61481 10.4448 9.6186 10.4439 9.62274 10.4432C9.62693 10.4426 9.63076 10.4423 9.63397 10.4423V11.109ZM10.098 10.8988L10.569 11.3707L11.1674 10.7734L10.6965 10.3015L10.2256 9.82965L9.62713 10.4269L10.098 10.8988ZM10.6965 10.3015L11.1674 10.7734C11.2219 10.719 11.3381 10.6012 11.4382 10.4995C11.4888 10.4481 11.5361 10.4 11.5707 10.3647C11.5881 10.3471 11.6022 10.3326 11.6121 10.3226C11.617 10.3176 11.6209 10.3137 11.6235 10.311C11.6248 10.3097 11.6258 10.3087 11.6265 10.308C11.6268 10.3076 11.6271 10.3074 11.6272 10.3072C11.6273 10.3071 11.6274 10.307 11.6274 10.307C11.6274 10.307 11.6275 10.307 11.6275 10.3069C11.6275 10.3069 11.6275 10.3069 11.6275 10.3069C11.6275 10.3069 11.6275 10.3069 11.1517 9.83992C10.676 9.37292 10.676 9.37292 10.676 9.37292C10.676 9.37292 10.676 9.37293 10.676 9.37293C10.6759 9.37294 10.6759 9.37296 10.6759 9.37298C10.6759 9.37302 10.6758 9.37308 10.6757 9.37317C10.6756 9.37334 10.6753 9.37359 10.675 9.37393C10.6743 9.3746 10.6733 9.3756 10.672 9.37692C10.6695 9.37955 10.6656 9.38343 10.6608 9.3884C10.651 9.39836 10.6369 9.41271 10.6197 9.43025C10.5852 9.46535 10.5381 9.5132 10.4879 9.56425C10.3863 9.66748 10.2749 9.78044 10.2256 9.82965L10.6965 10.3015ZM11.1517 9.83992C10.6796 10.3106 10.6796 10.3106 10.6796 10.3106C10.6796 10.3106 10.6796 10.3106 10.6796 10.3106C10.6796 10.3106 10.6796 10.3106 10.6796 10.3106C10.6796 10.3106 10.6797 10.3107 10.6798 10.3108C10.6799 10.3109 10.6802 10.3112 10.6805 10.3115C10.6811 10.3121 10.6821 10.3131 10.6833 10.3144C10.6859 10.3169 10.6896 10.3206 10.6944 10.3255C10.7041 10.3352 10.718 10.3491 10.7349 10.3663C10.769 10.4005 10.8152 10.4472 10.8643 10.4969C10.9672 10.6013 11.0682 10.7048 11.105 10.7451L11.5972 10.2954L12.0894 9.84577C12.0315 9.78245 11.9098 9.65822 11.8136 9.56073C11.7632 9.50957 11.7158 9.46177 11.6811 9.4268C11.6637 9.40931 11.6495 9.39498 11.6396 9.385C11.6346 9.38002 11.6307 9.37611 11.628 9.37344C11.6267 9.37211 11.6257 9.37108 11.625 9.37038C11.6246 9.37003 11.6244 9.36976 11.6242 9.36958C11.6241 9.36948 11.624 9.36941 11.624 9.36936C11.624 9.36934 11.6239 9.36932 11.6239 9.3693C11.6239 9.36929 11.6239 9.36929 11.6239 9.36928C11.6239 9.36928 11.6239 9.36927 11.1517 9.83992ZM11.5972 10.2954L11.1263 10.7673C11.1278 10.7688 11.1285 10.7696 11.1293 10.7704C11.1301 10.7711 11.1308 10.7719 11.1324 10.7734L11.6033 10.3015L12.0742 9.82965C12.0727 9.82813 12.0719 9.82737 12.0712 9.82661C12.0704 9.82584 12.0696 9.82508 12.0681 9.82355L11.5972 10.2954ZM11.6033 10.3015L11.1324 10.7734L12.8146 12.4523L13.2856 11.9804L13.7565 11.5085L12.0742 9.82965L11.6033 10.3015ZM8.58069 4.2169L8.4705 4.87439C9.13107 4.9851 9.73239 5.29652 10.2164 5.77957L10.6874 5.30769L11.1583 4.8358C10.4821 4.16103 9.63015 3.71682 8.69089 3.5594L8.58069 4.2169ZM10.6874 5.30769L10.2164 5.77957C10.6993 6.26141 11.0095 6.86136 11.1234 7.52312L11.7804 7.41004L12.4374 7.29697C12.2765 6.36215 11.8356 5.51178 11.1583 4.8358L10.6874 5.30769ZM8.70283 1.59961L8.59162 2.25694C9.87625 2.47427 11.049 3.08185 11.9849 4.01306L12.4551 3.54048L12.9254 3.0679C11.7973 1.9455 10.3749 1.20636 8.81404 0.942283L8.70283 1.59961ZM12.4551 3.54048L11.9842 4.01237C12.9192 4.94542 13.525 6.11484 13.7427 7.39676L14.4 7.28511L15.0572 7.17346C14.7926 5.61568 14.055 4.19524 12.9261 3.06859L12.4551 3.54048ZM13.2856 11.9804L12.8247 12.4621L13.3119 12.9282L13.7727 12.4464L14.2336 11.9647L13.7464 11.4986L13.2856 11.9804ZM13.7727 12.4464L13.2996 11.9767L12.8155 12.4643L13.2886 12.9341L13.7617 13.4038L14.2458 12.9162L13.7727 12.4464ZM5.66494 4.33572L5.18822 4.80174L5.65723 5.28153L6.13396 4.81551L6.61069 4.34949L6.14167 3.8697L5.66494 4.33572ZM6.13396 4.81551L5.66472 4.34195L5.1957 4.8067L5.66494 5.28026L6.13418 5.75381L6.6032 5.28907L6.13396 4.81551ZM5.66494 5.28026L5.19402 4.80837C5.0009 5.00109 4.82329 5.17762 4.63723 5.34409L5.08175 5.84092L5.52628 6.33775C5.74343 6.14347 5.94566 5.94196 6.13586 5.75214L5.66494 5.28026Z" fill="#72CFE8"/>
</svg>
