<svg width="197" height="134" viewBox="0 0 197 134" fill="none" xmlns="http://www.w3.org/2000/svg">
<g clip-path="url(#clip0_2002_8542)">
<path d="M7.83208 32.0387C5.60396 31.9885 3.23344 32.1895 2.42931 31.5278L1.17285 30.0535L45.3332 2.60412C50.87 -0.754811 58.7773 -1.04799 64.5151 2.80515L80.2627 16.2241C86.0508 20.8814 84.0907 26.3344 79.5758 29.5845L55.2005 47.4764L72.8161 62.4199L55.6696 76.3666L21.3432 47.4848L56.6999 22.4897L52.4866 19.1642L33.112 32.8177L7.83208 32.0387Z" fill="#72CFE8"/>
<path d="M-0.167969 36.9808L22.6912 57.6537L22.842 112.745L-0.167969 133.937V36.9389V36.9808Z" fill="#72CFE8"/>
<path d="M112 37.0813L88.4033 57.7626V112.737L112 133.937V37.0813Z" fill="#72CFE8"/>
<path d="M29.4844 62.8722L52.4273 82.4813L52.4859 112.527L29.4844 92.7759V62.8722Z" fill="#72CFE8"/>
<path d="M82.4316 63.1235L58.9023 82.674V112.477L82.4316 93.0272V63.1235Z" fill="#72CFE8"/>
<path d="M128 55.8804L129.872 40.9924H134.024L136.296 50.8004L138.536 40.9924H142.664L144.688 55.8804H141.632L140.432 46.3364L138.216 55.8804H134.288L132.008 46.4004L130.936 55.8804H128Z" fill="#111827"/>
<path d="M146.721 44.5284C146.721 41.7924 148.665 41.0084 150.417 41.0564C150.417 41.0564 154.521 41.2004 155.985 41.4324V44.0164H151.113C149.961 44.0164 149.961 44.7044 149.961 45.3524V47.3284L155.217 47.6164V50.1924L149.961 50.4404V52.4164C149.961 53.6084 150.697 53.5844 151.321 53.5844H155.985V56.1444C154.713 56.3684 150.617 56.5764 150.617 56.5764C148.977 56.6404 146.721 56.1844 146.721 53.3764V44.5284Z" fill="#111827"/>
<path d="M162.48 40.9443C165.136 40.9443 165.784 41.0723 168.776 41.6803V44.2083C168.616 44.1843 166 43.7443 163.28 43.7443C161.28 43.7443 160.912 45.1443 160.912 48.8243C160.912 52.6483 161.392 53.6883 163.352 53.6883C164.672 53.6883 166 52.6883 166 52.6883V50.5043H164.016V48.3763C164.944 47.9603 166.224 47.7923 167.76 47.7923C168.2 47.7923 168.68 47.8163 169.208 47.8563V56.2003H166.824L165.96 55.1283C165.264 55.9363 164.376 56.2883 162.56 56.3523C158.408 56.5123 157.68 53.2483 157.68 48.7843C157.68 44.4323 158.608 40.9443 162.48 40.9443Z" fill="#111827"/>
<path d="M175.28 41.0084H179.32L184.36 56.2884H180.92L179.904 53.1044H175.016L173.96 56.2884H170.48L175.28 41.0084ZM179.04 50.2004L177.432 45.1204L175.664 50.2004H179.04Z" fill="#111827"/>
<path d="M128 63.1603H134.832C136.984 63.1603 138.968 64.2163 138.968 67.8963C138.968 72.2483 136.808 72.9123 134.832 72.9123H131.224V78.2563H128V63.1603ZM134.472 70.0803C135.48 70.0803 135.92 69.2963 135.92 67.9603C135.896 66.5603 135.304 65.9363 134.432 65.9363H131.224V70.0803H134.472Z" fill="#111827"/>
<path d="M146.399 63.0004C150.327 63.0004 152.303 63.9684 152.303 70.4244C152.303 76.5044 150.495 78.1844 146.399 78.1844C142.199 78.1844 140.535 76.7284 140.535 70.4244C140.535 63.8644 142.655 63.0004 146.399 63.0004ZM146.399 75.3124C148.823 75.3124 149.263 74.0004 149.263 70.4244C149.263 66.1204 148.527 65.7844 146.399 65.7844C144.351 65.7844 143.519 66.0324 143.519 70.4244C143.519 74.1044 143.999 75.3124 146.399 75.3124Z" fill="#111827"/>
<path d="M156.8 63.1603L159.824 74.1203L162.336 63.1603H165.36L164.328 67.2323L166.528 74.2243L169.208 63.1603H172.552L168.32 78.3203H164.656L162.832 72.4003L161.208 78.3203H157.424L153.144 63.1603H156.8Z" fill="#111827"/>
<path d="M173.68 66.1204C173.68 63.3844 175.616 62.6004 177.368 62.6484C177.368 62.6484 181.48 62.7924 182.936 63.0244V65.6084H178.072C176.92 65.6084 176.92 66.2964 176.92 66.9444V68.9204L182.176 69.2084V71.7844L176.92 72.0323V74.0084C176.92 75.2004 177.656 75.1764 178.28 75.1764H182.936V77.7364C181.68 77.9604 177.576 78.1684 177.576 78.1684C175.936 78.2324 173.68 77.7764 173.68 74.9684V66.1204Z" fill="#111827"/>
<path d="M192.559 63.1603C195.063 63.1603 196.895 64.2723 196.895 67.8963C196.895 71.4403 195.423 72.0403 194.495 72.4003L197.231 78.0483H193.655L191.375 72.7523L189.039 72.4403V78.0483H185.815V63.1603H192.559ZM192.103 70.0003C193.215 70.0003 193.639 69.5203 193.639 67.8963C193.639 66.3843 193.055 65.8163 192.103 65.8163H189.079V70.0003H192.103Z" fill="#111827"/>
<path d="M129.648 86.4404H130.344L131.984 90.9924H131.504L131.024 89.6804H128.96L128.48 90.9924H128L129.648 86.4404ZM130.88 89.2404L129.992 86.7364L129.088 89.2404H130.88Z" fill="#111827"/>
<path d="M134.048 86.4404H134.488V88.8244C134.488 90.3764 134.944 90.6324 135.784 90.6324C136.712 90.6324 137.112 90.3204 137.112 88.8244V86.4404H137.552V88.8244C137.552 90.4804 136.944 91.0324 135.784 91.0324C134.656 91.0324 134.048 90.4644 134.048 88.8244V86.4404Z" fill="#111827"/>
<path d="M143.384 86.4404V86.8644H142V90.9924H141.584V86.8644H140.192V86.4404H143.384Z" fill="#111827"/>
<path d="M147.888 86.4404C149.144 86.4404 149.736 86.9844 149.736 88.6644C149.736 90.2964 149.168 91.0564 147.888 91.0564C146.616 91.0564 146.048 90.3364 146.048 88.7044C146.048 87.1124 146.656 86.4404 147.888 86.4404ZM147.888 90.6564C148.92 90.6564 149.296 90.0244 149.296 88.6884C149.296 87.4324 148.88 86.8404 147.888 86.8404C146.896 86.8404 146.488 87.4324 146.488 88.6884C146.488 89.9844 146.912 90.6564 147.888 90.6564Z" fill="#111827"/>
<path d="M152.929 86.4404H153.641L155.001 90.2964L156.337 86.4404H157.049L157.337 90.9924H156.897L156.649 86.9284L155.313 90.7764H154.729L153.369 86.9284L153.161 90.9924H152.721L152.929 86.4404Z" fill="#111827"/>
<path d="M161.569 86.4404C162.825 86.4404 163.409 86.9844 163.409 88.6644C163.409 90.2964 162.849 91.0564 161.569 91.0564C160.297 91.0564 159.729 90.3364 159.729 88.7044C159.729 87.1124 160.337 86.4404 161.569 86.4404ZM161.569 90.6564C162.601 90.6564 162.977 90.0244 162.977 88.6884C162.977 87.4324 162.561 86.8404 161.569 86.8404C160.577 86.8404 160.169 87.4324 160.169 88.6884C160.169 89.9844 160.593 90.6564 161.569 90.6564Z" fill="#111827"/>
<path d="M169.304 86.4404V86.8644H167.92V90.9924H167.504V86.8644H166.112V86.4404H169.304Z" fill="#111827"/>
<path d="M172.208 86.4404H172.64V90.9924H172.208V86.4404Z" fill="#111827"/>
<path d="M175.888 86.4404L177.272 90.4644L178.728 86.4404H179.2L177.536 90.9924H176.968L175.376 86.4404H175.888Z" fill="#111827"/>
<path d="M181.969 87.4004C181.969 86.6884 182.449 86.4564 182.929 86.4724L184.761 86.6004V86.9124H182.929C182.489 86.9124 182.385 87.1604 182.385 87.4324V88.6164L184.489 88.6804V89.0164L182.385 89.0804V90.2724C182.385 90.7284 182.681 90.7044 182.889 90.7044H184.761V91.0244L182.889 91.1444C182.409 91.1924 181.969 91.0244 181.969 90.3124V87.4004Z" fill="#111827"/>
</g>
<defs>
<clipPath id="clip0_2002_8542">
<rect width="197" height="134" fill="white"/>
</clipPath>
</defs>
</svg>
