<svg width="240" height="165" viewBox="0 0 240 165" fill="none" xmlns="http://www.w3.org/2000/svg">
<g clip-path="url(#clip0_4011_22421)">
<path d="M9.54147 40.032C6.82701 39.9707 3.93907 40.2157 2.95942 39.4095L1.42871 37.6134L55.2281 4.17253C61.9734 0.0804338 71.6067 -0.276734 78.5969 4.41744L97.7818 20.7654C104.833 26.4393 102.445 33.0825 96.945 37.042L67.2492 58.8393L88.7098 77.0445L67.8207 94.0354L26.0017 58.8495L69.0759 28.3986L63.9429 24.3473L40.3394 40.981L9.54147 40.032Z" fill="#72CFE8"/>
<path d="M-0.205112 46.0519L27.6436 71.2372L27.8273 138.354L-0.205112 164.172V46.0009V46.0519Z" fill="#72CFE8"/>
<path d="M136.446 46.1748L107.699 71.3703V138.344L136.446 164.172V46.1748Z" fill="#72CFE8"/>
<path d="M35.9199 77.5947L63.8707 101.484L63.9421 138.088L35.9199 114.026V77.5947Z" fill="#72CFE8"/>
<path d="M100.425 77.9014L71.7598 101.719V138.028L100.425 114.332V77.9014Z" fill="#72CFE8"/>
<path d="M155.94 69.0781L158.22 50.9404H163.278L166.046 62.8893L168.775 50.9404H173.804L176.27 69.0781H172.547L171.085 57.4509L168.385 69.0781H163.6L160.822 57.5289L159.516 69.0781H155.94Z" fill="white"/>
<path d="M178.746 55.248C178.746 51.9148 181.115 50.9596 183.249 51.0181C183.249 51.0181 188.249 51.1936 190.032 51.4762V54.6242H184.097C182.693 54.6242 182.693 55.4624 182.693 56.2518V58.6591L189.097 59.01V62.1483L182.693 62.4504V64.8577C182.693 66.3099 183.59 66.2807 184.35 66.2807H190.032V69.3994C188.483 69.6723 183.493 69.9257 183.493 69.9257C181.495 70.0037 178.746 69.4482 178.746 66.0273V55.248Z" fill="white"/>
<path d="M197.946 50.8818C201.181 50.8818 201.971 51.0378 205.616 51.7785V54.8583C205.421 54.829 202.234 54.293 198.92 54.293C196.484 54.293 196.035 55.9986 196.035 60.4818C196.035 65.1405 196.62 66.4075 199.008 66.4075C200.616 66.4075 202.234 65.1892 202.234 65.1892V62.5285H199.817V59.936C200.947 59.4292 202.507 59.2246 204.378 59.2246C204.914 59.2246 205.499 59.2538 206.142 59.3025V69.4678H203.238L202.185 68.1618C201.337 69.1462 200.255 69.575 198.043 69.653C192.985 69.8479 192.098 65.8715 192.098 60.4331C192.098 55.1312 193.228 50.8818 197.946 50.8818Z" fill="white"/>
<path d="M213.539 50.96H218.461L224.601 69.5752H220.41L219.173 65.6962H213.218L211.931 69.5752H207.692L213.539 50.96ZM218.12 62.1583L216.161 55.9695L214.007 62.1583H218.12Z" fill="white"/>
<path d="M155.939 77.9464H164.263C166.884 77.9464 169.301 79.2329 169.301 83.7161C169.301 89.018 166.67 89.827 164.263 89.827H159.867V96.3374H155.939V77.9464ZM163.824 86.3768C165.052 86.3768 165.588 85.4217 165.588 83.7941C165.559 82.0885 164.838 81.3283 163.775 81.3283H159.867V86.3768H163.824Z" fill="white"/>
<path d="M178.354 77.752C183.139 77.752 185.547 78.9313 185.547 86.7965C185.547 94.2036 183.344 96.2503 178.354 96.2503C173.237 96.2503 171.21 94.4765 171.21 86.7965C171.21 78.8046 173.793 77.752 178.354 77.752ZM178.354 92.7514C181.307 92.7514 181.843 91.153 181.843 86.7965C181.843 81.553 180.946 81.1437 178.354 81.1437C175.859 81.1437 174.845 81.4458 174.845 86.7965C174.845 91.2797 175.43 92.7514 178.354 92.7514Z" fill="white"/>
<path d="M191.024 77.9464L194.708 91.2986L197.769 77.9464H201.453L200.195 82.9072L202.876 91.4253L206.141 77.9464H210.215L205.059 96.4154H200.595L198.373 89.2032L196.394 96.4154H191.785L186.57 77.9464H191.024Z" fill="white"/>
<path d="M211.589 81.5527C211.589 78.2195 213.947 77.2644 216.082 77.3229C216.082 77.3229 221.091 77.4983 222.865 77.7809V80.929H216.94C215.536 80.929 215.536 81.7671 215.536 82.5566V84.9639L221.939 85.3148V88.453L215.536 88.7552V91.1625C215.536 92.6146 216.433 92.5854 217.193 92.5854H222.865V95.7042C221.335 95.9771 216.335 96.2305 216.335 96.2305C214.337 96.3085 211.589 95.7529 211.589 92.332V81.5527Z" fill="white"/>
<path d="M234.59 77.9464C237.641 77.9464 239.873 79.3011 239.873 83.7161C239.873 88.0337 238.079 88.7646 236.949 89.2032L240.282 96.084H235.925L233.148 89.632L230.302 89.2519V96.084H226.374V77.9464H234.59ZM234.035 86.2794C235.389 86.2794 235.906 85.6946 235.906 83.7161C235.906 81.8741 235.194 81.1821 234.035 81.1821H230.35V86.2794H234.035Z" fill="white"/>
<path d="M157.947 106.309H158.795L160.793 111.854H160.208L159.624 110.256H157.109L156.524 111.854H155.939L157.947 106.309ZM159.448 109.72L158.366 106.669L157.265 109.72H159.448Z" fill="white"/>
<path d="M163.307 106.309H163.843V109.213C163.843 111.104 164.398 111.416 165.422 111.416C166.552 111.416 167.039 111.036 167.039 109.213V106.309H167.575V109.213C167.575 111.23 166.835 111.903 165.422 111.903C164.047 111.903 163.307 111.211 163.307 109.213V106.309Z" fill="white"/>
<path d="M174.682 106.309V106.825H172.996V111.854H172.489V106.825H170.793V106.309H174.682Z" fill="white"/>
<path d="M180.168 106.309C181.699 106.309 182.42 106.971 182.42 109.018C182.42 111.006 181.728 111.932 180.168 111.932C178.619 111.932 177.927 111.055 177.927 109.067C177.927 107.127 178.667 106.309 180.168 106.309ZM180.168 111.445C181.426 111.445 181.884 110.675 181.884 109.047C181.884 107.517 181.377 106.796 180.168 106.796C178.96 106.796 178.463 107.517 178.463 109.047C178.463 110.626 178.979 111.445 180.168 111.445Z" fill="white"/>
<path d="M186.309 106.309H187.176L188.833 111.006L190.461 106.309H191.328L191.679 111.854H191.143L190.841 106.903L189.213 111.591H188.502L186.845 106.903L186.592 111.854H186.056L186.309 106.309Z" fill="white"/>
<path d="M196.835 106.309C198.366 106.309 199.077 106.971 199.077 109.018C199.077 111.006 198.395 111.932 196.835 111.932C195.286 111.932 194.594 111.055 194.594 109.067C194.594 107.127 195.334 106.309 196.835 106.309ZM196.835 111.445C198.093 111.445 198.551 110.675 198.551 109.047C198.551 107.517 198.044 106.796 196.835 106.796C195.627 106.796 195.13 107.517 195.13 109.047C195.13 110.626 195.646 111.445 196.835 111.445Z" fill="white"/>
<path d="M206.259 106.309V106.825H204.573V111.854H204.066V106.825H202.37V106.309H206.259Z" fill="white"/>
<path d="M209.796 106.309H210.322V111.854H209.796V106.309Z" fill="white"/>
<path d="M214.28 106.309L215.966 111.211L217.74 106.309H218.315L216.288 111.854H215.596L213.656 106.309H214.28Z" fill="white"/>
<path d="M221.688 107.478C221.688 106.611 222.272 106.328 222.857 106.348L225.089 106.504V106.884H222.857C222.321 106.884 222.194 107.186 222.194 107.517V108.96L224.758 109.038V109.447L222.194 109.525V110.977C222.194 111.533 222.555 111.503 222.808 111.503H225.089V111.893L222.808 112.039C222.224 112.098 221.688 111.893 221.688 111.026V107.478Z" fill="white"/>
</g>
<defs>
<clipPath id="clip0_4011_22421">
<rect width="240" height="165" fill="white"/>
</clipPath>
</defs>
</svg>
