<svg width="191" height="24" viewBox="0 0 191 24" fill="none" xmlns="http://www.w3.org/2000/svg">
<path d="M1.40999 23.4542L4.08479 0.841995H10.5858L13.503 14.8898L16.3968 0.841995H23.9004L26.1468 23.4542H21.4512L19.5948 9.2036L16.6074 23.2514H10.9794L7.94939 9.0008L6.45179 23.4542H1.40999Z" fill="#111827"/>
<path d="M28.1982 18.6179V5.94285C28.1982 2.37045 30.2184 1.01325 33.0108 1.09125L44.2896 1.47346V5.76346H34.9062C33.6504 5.76346 33.6738 6.53565 33.6738 7.25325V9.60886L42.7218 10.0145V13.9379L33.8454 14.2889V16.6445C33.8454 17.9315 34.485 17.9003 35.2338 17.9003H44.2818V22.7129C40.9044 23.0951 35.5848 23.4149 33.6738 23.4149C31.2558 23.4149 28.1982 22.7675 28.1982 18.6179Z" fill="#111827"/>
<path d="M45.3816 11.676C45.3816 3.86824 47.3316 0.748245 53.3142 0.748245C56.8242 0.748245 59.1798 1.13044 62.6118 1.82464V6.00544C59.1798 5.44384 57.4092 5.25664 55.4514 5.25664C51.6528 5.25664 50.8338 6.27845 50.8338 12.2298C50.8338 17.5962 51.5202 18.9534 55.0536 18.9534C57.0426 18.9534 57.417 17.7288 57.417 15.4278V14.4294H55.0068V10.5294C57.027 10.1004 59.1018 10.077 62.8926 10.1004V23.4774H59.0472L58.1658 21.816C57.2532 22.869 56.5356 23.61 53.5638 23.6958C47.2536 23.9064 45.3816 20.3574 45.3816 11.676Z" fill="#111827"/>
<path d="M65.1234 23.2982L72.4476 0.841995H78.4302L84.8964 23.2982H80.0448L78.6486 18.821H71.9718L70.4898 23.2982H65.1234ZM73.0872 14.5466H77.5956L75.4896 7.38619L73.0872 14.5466Z" fill="#111827"/>
<path d="M87.876 23.0638V0.833786H98.094C102.712 0.833786 103.648 4.30478 103.648 7.93178C103.648 11.0518 102.4 14.9284 98.1174 14.9284C96.8928 14.9284 94.1394 14.6086 92.6808 14.3434V23.0638H87.876ZM92.5794 11.1844H97.1112C98.6244 11.1844 99.1314 9.91298 99.1314 8.17358C99.1314 6.12218 98.4372 5.31879 97.2204 5.31879H92.5794V11.1844Z" fill="#111827"/>
<path d="M105.114 11.832C105.114 4.24257 107.165 0.826172 114.49 0.826172C121.814 0.826172 123.889 4.24257 123.889 11.832C123.889 19.4214 121.946 23.1888 114.49 23.1888C107.033 23.1888 105.114 19.4214 105.114 11.832ZM110.098 11.832C110.098 17.2218 110.613 18.6336 114.49 18.6336C118.366 18.6336 118.881 17.2218 118.881 11.832C118.881 6.83997 118.163 5.31117 114.49 5.31117C110.816 5.31117 110.098 6.83997 110.098 11.832Z" fill="#111827"/>
<path d="M124.614 1.06816H129.926L133.88 16.52L137.999 1.06816H143.006L141.727 6.73096L145.237 17.1908L148.771 1.06816H154.078L148.408 23.2904H142.687L139.793 14.1878L137.312 23.2904H131.384L124.614 1.06816Z" fill="#111827"/>
<path d="M155.034 18.6179V5.94285C155.034 2.37045 157.054 1.01325 159.847 1.09125L170.735 1.47346V5.76346H161.742C160.486 5.76346 160.51 6.53565 160.51 7.25325V9.60886L169.105 10.0145V13.9379L160.681 14.2889V16.6445C160.681 17.9315 161.321 17.9003 162.07 17.9003H170.345V22.7129C167.202 23.0951 162.421 23.4149 160.517 23.4149C158.099 23.4149 155.034 22.7675 155.034 18.6179Z" fill="#111827"/>
<path d="M173.052 23.2202V0.990234H183.457C186.835 0.990234 189.728 2.45663 189.892 7.42523C190.025 12.0896 188.48 13.4 186.296 14.3204L190.259 23.2202H184.612L181.265 14.4842H178.231L178.231 23.2202H173.052ZM178.028 10.6232H182.935C184.448 10.6232 184.9 9.74963 184.9 7.77623C184.877 6.06023 184.292 5.28804 182.935 5.28804H178.028V10.6232Z" fill="#111827"/>
</svg>
