<svg width="55" height="20" viewBox="0 0 55 20" fill="none" xmlns="http://www.w3.org/2000/svg">
<path d="M9.37356 1.41704C9.75761 1.41704 10.0674 1.10068 10.0674 0.708519C10.0674 0.316362 9.75761 0 9.37356 0C8.98951 0 8.67969 0.316362 8.67969 0.708519C8.67969 1.10068 8.98951 1.41704 9.37356 1.41704Z" fill="white"/>
<path d="M24.2788 12.1635H22.5586L24.8855 0L28.7357 8.78563L32.6246 0L34.7159 12.1635H32.9957L31.8694 5.34849L28.6518 12.2755L25.4567 5.33531L24.282 12.1635H24.2788Z" fill="white"/>
<path d="M35.6094 0.11534H37.4425L40.3632 7.68825L43.3485 0L46.2337 7.68825L49.2545 0.125227H51.0876L46.1337 12.1602L43.2484 4.14566L40.3277 12.1602L35.6094 0.11534Z" fill="white"/>
<path d="M53.3047 0H55.0023V12.1635H53.3047V0Z" fill="white"/>
<path fill-rule="evenodd" clip-rule="evenodd" d="M23.9458 19.0022C24.3557 19.0022 24.6268 18.811 24.7139 18.6595V18.9626H25.1109V15.4102H24.7139V16.6229C24.5655 16.4713 24.3299 16.3691 23.9716 16.3691C23.2907 16.3691 22.7227 16.9129 22.7227 17.6972C22.7227 18.4815 23.2293 18.9989 23.949 18.9989L23.9458 19.0022ZM24.7139 17.1073V18.1322C24.6139 18.3332 24.3686 18.6133 23.9942 18.6133C23.5004 18.6133 23.139 18.2706 23.139 17.6906C23.139 17.1106 23.5488 16.7547 24.0168 16.7547C24.3395 16.7547 24.5622 16.8799 24.7107 17.1073H24.7139Z" fill="white"/>
<path fill-rule="evenodd" clip-rule="evenodd" d="M26.3224 15.5999C26.3224 15.4615 26.2095 15.3594 26.0739 15.3594C25.9255 15.3594 25.8125 15.4615 25.8125 15.5999C25.8125 15.7515 25.9255 15.8537 26.0739 15.8537C26.2095 15.8537 26.3224 15.7515 26.3224 15.5999ZM26.2611 16.4205H25.8641V18.9613H26.2611V16.4205Z" fill="white"/>
<path fill-rule="evenodd" clip-rule="evenodd" d="M28.153 19.9784C28.7856 19.9784 29.2664 19.6258 29.2664 18.7657V16.4127H28.8566V16.6401C28.7436 16.5017 28.4854 16.3633 28.1143 16.3633C27.4333 16.3633 26.875 16.8576 26.875 17.6782C26.875 18.4987 27.3688 18.993 28.1143 18.993C28.5338 18.993 28.7081 18.8678 28.8695 18.6767V18.8283C28.8695 19.2962 28.621 19.573 28.1401 19.573C27.7431 19.573 27.5076 19.3819 27.4107 19.1941L27.0525 19.3588C27.1881 19.7378 27.6108 19.9784 28.153 19.9784ZM28.8727 17.1212V18.1461C28.7856 18.3867 28.5371 18.6272 28.1788 18.6141C27.6463 18.6141 27.301 18.2713 27.301 17.6913C27.301 17.1113 27.7109 16.7554 28.1788 16.7554C28.5145 16.7554 28.7598 16.9202 28.8727 17.1212Z" fill="white"/>
<path fill-rule="evenodd" clip-rule="evenodd" d="M30.4826 15.5999C30.4826 15.4615 30.3696 15.3594 30.2341 15.3594C30.0856 15.3594 29.9727 15.4615 29.9727 15.5999C29.9727 15.7515 30.0856 15.8537 30.2341 15.8537C30.3696 15.8537 30.4826 15.7515 30.4826 15.5999ZM30.4213 16.4205H30.0243V18.9613H30.4213V16.4205Z" fill="white"/>
<path d="M30.9173 16.4232H31.4369V15.7773H31.8338V16.4232H32.6891V16.8154H31.8338V17.9293C31.8338 18.4335 31.9694 18.5982 32.2663 18.5982C32.4406 18.5982 32.5761 18.5224 32.7117 18.4203L32.8956 18.7235C32.7472 18.8882 32.4987 18.9904 32.1889 18.9904C31.7048 18.9904 31.4337 18.6608 31.4337 18.0281V16.8154H30.9141V16.4232H30.9173Z" fill="white"/>
<path fill-rule="evenodd" clip-rule="evenodd" d="M34.285 16.3588C33.9267 16.3588 33.5298 16.5104 33.2942 16.7246L33.491 17.0277C33.7266 16.8498 33.9493 16.7509 34.2333 16.7509C34.7529 16.7509 34.9014 17.0541 34.9014 17.5089C34.7787 17.4726 34.5044 17.4331 34.3205 17.4331C33.604 17.4331 33.1328 17.6605 33.1328 18.2174C33.1328 18.6853 33.491 18.9885 34.0365 18.9885C34.4689 18.9885 34.7562 18.7974 34.9046 18.5832V18.9622H35.3016V17.3803C35.3016 16.7344 34.9562 16.3555 34.285 16.3555V16.3588ZM34.9046 17.8747V18.1284C34.8175 18.3294 34.5464 18.6227 34.1236 18.6227C33.788 18.6227 33.5556 18.4711 33.5556 18.2042C33.5556 17.901 33.8654 17.7989 34.3721 17.7989C34.569 17.7989 34.782 17.8351 34.9046 17.8747Z" fill="white"/>
<path d="M36.0156 15.3984H36.4126V18.9641H36.0156V15.3984Z" fill="white"/>
<path fill-rule="evenodd" clip-rule="evenodd" d="M39.6834 16.3588C39.3252 16.3588 38.9282 16.5104 38.6926 16.7246L38.8895 17.0277C39.1251 16.8498 39.3478 16.7509 39.6318 16.7509C40.1514 16.7509 40.2998 17.0541 40.2998 17.5089C40.1772 17.4726 39.9029 17.4331 39.7189 17.4331C39.0024 17.4331 38.5312 17.6605 38.5312 18.2174C38.5312 18.6853 38.8895 18.9885 39.4349 18.9885C39.8674 18.9885 40.1514 18.7974 40.2998 18.5832V18.9622H40.6968V17.3803C40.6968 16.7344 40.3515 16.3555 39.6802 16.3555L39.6834 16.3588ZM40.303 17.8747V18.1284C40.2159 18.3294 39.9448 18.6227 39.522 18.6227C39.1896 18.6227 38.954 18.4711 38.954 18.2042C38.954 17.901 39.2639 17.7989 39.7705 17.7989C39.9674 17.7989 40.1804 17.8351 40.303 17.8747Z" fill="white"/>
<path fill-rule="evenodd" clip-rule="evenodd" d="M42.5163 19.9784C43.1489 19.9784 43.6297 19.6258 43.6297 18.7657V16.4127H43.2199V16.6401C43.1069 16.5017 42.8487 16.3633 42.4776 16.3633C41.7966 16.3633 41.2383 16.8576 41.2383 17.6782C41.2383 18.4987 41.7353 18.993 42.4776 18.993C42.8971 18.993 43.0714 18.8678 43.2328 18.6767V18.8283C43.2328 19.2962 42.9843 19.573 42.5034 19.573C42.1064 19.573 41.8708 19.3819 41.774 19.1941L41.4158 19.3588C41.5513 19.7378 41.9741 19.9784 42.5163 19.9784ZM43.2231 17.1212V18.1461C43.1489 18.3867 42.9004 18.6272 42.5292 18.6141C41.9967 18.6141 41.6514 18.2713 41.6514 17.6913C41.6514 17.1113 42.0612 16.7554 42.5292 16.7554C42.8649 16.7554 43.1101 16.9202 43.2231 17.1212Z" fill="white"/>
<path fill-rule="evenodd" clip-rule="evenodd" d="M45.5139 19.014C45.9238 19.014 46.2691 18.8361 46.5047 18.4835L46.2433 18.2429C46.0948 18.4571 45.8238 18.6219 45.5236 18.6219C45.0169 18.6219 44.6458 18.3451 44.62 17.8244H46.5757C46.6015 17.709 46.6015 17.6102 46.6015 17.5212C46.6015 16.8127 46.1045 16.3711 45.4494 16.3711C44.62 16.3711 44.1875 16.9511 44.1875 17.6992C44.1875 18.4966 44.72 19.014 45.5139 19.014ZM46.182 17.4586H44.6103C44.6716 17.0401 44.9685 16.7369 45.4268 16.7501C45.8722 16.7501 46.1562 17.0038 46.182 17.4586Z" fill="white"/>
<path d="M47.1602 16.4244H47.5571V16.754C47.7185 16.5002 48.0541 16.375 48.4124 16.375C49.0578 16.375 49.4161 16.7177 49.4161 17.5251V18.9652H49.0191V17.5745C49.0191 17.0176 48.7835 16.7639 48.2897 16.7639C47.9799 16.7639 47.6959 16.9649 47.5603 17.2812V18.9619H47.1634V16.4211L47.1602 16.4244Z" fill="white"/>
<path d="M52.3104 18.4361C52.1265 18.8019 51.6779 19.0062 51.2841 19.0062C50.4902 19.0062 49.9609 18.4888 49.9609 17.6913C49.9609 16.9466 50.4805 16.3633 51.2615 16.3633C51.7069 16.3633 52.1039 16.5643 52.2652 16.8807L51.9554 17.0949C51.7811 16.8543 51.5714 16.7521 51.2615 16.7521C50.7549 16.7521 50.3708 17.1443 50.3708 17.688C50.3708 18.2318 50.7419 18.6239 51.3132 18.6239C51.6101 18.6239 51.8586 18.4724 52.0071 18.2318L52.3169 18.4328L52.3104 18.4361Z" fill="white"/>
<path d="M52.9445 19.5715C52.98 19.5846 53.0059 19.5978 53.0446 19.5978C53.2285 19.5978 53.3544 19.4726 53.5287 19.0673L53.6029 18.8761L52.4023 16.4375H52.8735L53.803 18.3587L54.5098 16.4375H54.9422L53.9999 18.942C53.6642 19.8021 53.406 20.0032 53.0575 20.0032C52.9574 20.0032 52.8606 19.9768 52.7864 19.9405L52.9478 19.5748L52.9445 19.5715Z" fill="white"/>
<path d="M15.4288 12.1494H18.1398L18.7594 11.0882H14.7091L12.9374 16.1204L11.811 14.0475L9.89076 17.6264V2.3125H8.85156V19.8475H9.89076L11.811 16.1039L12.9987 18.6447L13.2827 17.8735L13.5312 17.2178" fill="white"/>
<path d="M3.3306 10.0106H0.606736L0 11.0718H4.05029L5.82209 6.02646L6.93551 8.11247L8.85577 4.53362V19.8442H9.90788V2.3125H8.85577L6.94842 6.05611L5.76077 3.51533L5.47676 4.28647H5.46385L5.22826 4.93237V4.94555" fill="white"/>
</svg>
