<svg width="0" height="0">
	<symbol xmlns="http://www.w3.org/2000/svg" id="lupa" viewBox="0 0 16 16">
		<path d="M11.2846 11.3604L13.6 13.6004M12.8534 7.62706C12.8534 10.5137 10.5133 12.8537 7.62669 12.8537C4.74008 12.8537 2.40002 10.5137 2.40002 7.62706C2.40002 4.74045 4.74008 2.40039 7.62669 2.40039C10.5133 2.40039 12.8534 4.74045 12.8534 7.62706Z" stroke-width="1.33333" stroke-linecap="square"/>
	</symbol>
	<symbol xmlns="http://www.w3.org/2000/svg" id="clear" viewBox="0 0 16 16">
		<path d="M16 15H5.33301L0 8L5.33301 1H16V15ZM9.77734 7.5L6.98438 4.75L6.72949 4.5L6.22266 5L6.47559 5.25L9.26953 7.99902L6.22266 10.999L6.72949 11.5L9.77734 8.49902L12.5713 11.25L12.8252 11.5L13.333 10.999L13.0791 10.75L10.2852 7.99902L13.333 5L12.8252 4.5L9.77734 7.5Z"/>
	</symbol>
	<symbol xmlns="http://www.w3.org/2000/svg" id="arrow1" viewBox="0 0 48 48">
		<path d="M24.0844 44L44 24L24.0844 4M44 24H4"/>
	</symbol>


	<symbol xmlns="http://www.w3.org/2000/svg" id="download" viewBox="0 0 16 16">
		<path d="M7.90111 10.2886L7.46646 10.7719L8.33577 10.7719L7.90111 10.2886ZM12.2821 7.22275L12.7654 6.78809L11.8961 5.8215L11.4128 6.25616L11.8474 6.73945L12.2821 7.22275ZM4.38946 6.25616L3.90616 5.8215L3.03685 6.78809L3.52015 7.22275L3.95481 6.73945L4.38946 6.25616ZM1.50012 15V15.65H2.72062V15V14.35H1.50012V15ZM2.72062 15V15.65H13.0797V15V14.35H2.72062V15ZM13.0797 15V15.65H14.5001V15V14.35H13.0797V15ZM7.90111 1H7.25111V10.2886H7.90111H8.55111V1H7.90111ZM7.90111 10.2886L8.33577 10.7719L12.2821 7.22275L11.8474 6.73945L11.4128 6.25616L7.46646 9.80529L7.90111 10.2886ZM3.95481 6.73945L3.52015 7.22275L7.46646 10.7719L7.90111 10.2886L8.33577 9.80529L4.38946 6.25616L3.95481 6.73945Z"/>
	</symbol>
	<symbol xmlns="http://www.w3.org/2000/svg" id="arrow3" viewBox="0 0 16 16">
		<path d="M16 12.367H14.7087V2.20449L1.9132 15L1 14.0868L13.7955 1.29128H3.63297V0H16V12.367Z"/>
	</symbol>
</svg>